<svg width="512" height="512" viewBox="0 0 512 512" fill="none" xmlns="http://www.w3.org/2000/svg">
<rect width="512" height="512" rx="256" fill="black"/>
<g clip-path="url(#clip0_174_24)">
<path d="M359.74 149.979L180.909 149.862C162.993 149.85 148.681 160.44 143.37 175.909C138.133 191.169 142.388 209.674 156.73 219.97C187.154 241.808 214.801 268.198 246.876 287.109C259.469 289.318 279.424 286.09 281.26 308.001C282.512 322.967 272.633 336.41 255.607 337.361C236.844 338.411 233.86 318.905 230.01 307.345C203.344 280.114 168.851 260.682 139.901 235.015C119.541 216.97 112.707 190.304 123.065 165.042C132.159 142.88 154.796 126.988 180.836 127L357.265 127.098C371.418 127.104 382.555 135.179 388.99 145.788C396.032 157.397 396.002 174.393 386.497 184.867C372.977 199.765 359.119 212.35 344.132 226.836L326.339 212.706L364.639 175.608C368.249 172.111 371.233 167.055 370.969 162.165C370.754 158.133 366.739 149.985 359.733 149.985L359.74 149.979Z" fill="white"/>
<path d="M168.015 284.108L186.245 298.209L147.035 336.619C143.45 340.129 140.773 346.111 141.553 349.971C142.437 354.358 146.704 361.187 151.954 361.181L337.108 361.027C352.58 361.015 365.118 346.087 368.747 334.557C373.517 319.426 369.434 302.172 356.823 292.386L266.671 222.406C250.922 228.935 234.952 219.884 231.815 205.686C227.732 188.99 239.987 176.553 254.256 174.584C275.009 171.718 278.447 190.647 282.107 203.747L374.273 278.175C394.129 294.214 398.599 320.795 389.475 344.393C381.825 364.187 361.618 383.865 336.561 383.877L150.861 383.988C137.82 383.994 125.552 372.054 121.426 363.218C115.906 351.394 116.809 335.619 125.914 326.458L168.015 284.096V284.108Z" fill="white"/>
</g>
<defs>
<clipPath id="clip0_174_24">
<rect width="276" height="257" fill="white" transform="translate(118 127)"/>
</clipPath>
</defs>
</svg>
