<svg width="450" height="419" viewBox="0 0 450 419" fill="none" xmlns="http://www.w3.org/2000/svg">
<g clip-path="url(#clip0_174_9)">
<path d="M393.72 37.45L102.46 37.26C73.28 37.24 49.97 54.5 41.32 79.71C32.79 104.58 39.72 134.74 63.08 151.52C112.63 187.11 157.66 230.12 209.9 260.94C230.41 264.54 262.91 259.28 265.9 294.99C267.94 319.38 251.85 341.29 224.12 342.84C193.56 344.55 188.7 312.76 182.43 293.92C139 249.54 82.82 217.87 35.67 176.04C2.51001 146.63 -8.61999 103.17 8.25002 62C23.06 25.88 59.93 -0.0199884 102.34 1.1575e-05L389.69 0.160012C412.74 0.170012 430.88 13.33 441.36 30.62C452.83 49.54 452.78 77.24 437.3 94.31C415.28 118.59 392.71 139.1 368.3 162.71L339.32 139.68L401.7 79.22C407.58 73.52 412.44 65.28 412.01 57.31C411.66 50.74 405.12 37.46 393.71 37.46L393.72 37.45Z" fill="black"/>
<path d="M81.46 256.05L111.15 279.03L47.29 341.63C41.45 347.35 37.09 357.1 38.36 363.39C39.8 370.54 46.75 381.67 55.3 381.66L356.86 381.41C382.06 381.39 402.48 357.06 408.39 338.27C416.16 313.61 409.51 285.49 388.97 269.54L242.14 155.49C216.49 166.13 190.48 151.38 185.37 128.24C178.72 101.03 198.68 80.76 221.92 77.55C255.72 72.88 261.32 103.73 267.28 125.08L417.39 246.38C449.73 272.52 457.01 315.84 442.15 354.3C429.69 386.56 396.78 418.63 355.97 418.65L53.52 418.83C32.28 418.84 12.3 399.38 5.57998 384.98C-3.41002 365.71 -1.94002 340 12.89 325.07L81.46 256.03V256.05Z" fill="black"/>
</g>
<defs>
<clipPath id="clip0_174_9">
<rect width="449.52" height="418.85" fill="white"/>
</clipPath>
</defs>
</svg>
